PathFileType	4	(X/Y/Z)	C:\Users\Basilio\Documents\Thesis Gigler\squatting_fais\c3dfiles\054\SLS_front_pre4\markers_experimental.trc
DataRate	CameraRate	NumFrames	NumMarkers	Units	OrigDataRate	OrigDataStartFrame	OrigNumFrames
200.000000	200.000000	4	61	mm	200.000000	177	1421
Frame#	Time	FHD			LBHD			RBHD			C7			T10			CLAV			LSHO			LUUPA			LMUPA			LDUPA			LLEP			LMEP			LRAD			LUL			LRFIN			RSHO			RUPA1			RMUPA			RDUPA			RLEP			RMEP			RRAD			RUL			RUFIN			LASI			RASI			USACR			LSACR			RSACR			LTHI1			LTHI2			LTHI3			LTHI4			LLFC			LMFC			LTIB1			LTIB2			LTIB3			LTIB4			LLMAL			LMMAL			LHEE			LMT1			LMT2			LMT5			RTHI			RTHI2			RTHI3			RTHI4			RLFC			RMFC			RTIB1			RTIB2			RTIB3			RTIB4			RLMAL			RMMAL			RHEE			RMT1			RMT2			RMT5			
		X1	Y1	Z1	X2	Y2	Z2	X3	Y3	Z3	X4	Y4	Z4	X5	Y5	Z5	X6	Y6	Z6	X7	Y7	Z7	X8	Y8	Z8	X9	Y9	Z9	X10	Y10	Z10	X11	Y11	Z11	X12	Y12	Z12	X13	Y13	Z13	X14	Y14	Z14	X15	Y15	Z15	X16	Y16	Z16	X17	Y17	Z17	X18	Y18	Z18	X19	Y19	Z19	X20	Y20	Z20	X21	Y21	Z21	X22	Y22	Z22	X23	Y23	Z23	X24	Y24	Z24	X25	Y25	Z25	X26	Y26	Z26	X27	Y27	Z27	X28	Y28	Z28	X29	Y29	Z29	X30	Y30	Z30	X31	Y31	Z31	X32	Y32	Z32	X33	Y33	Z33	X34	Y34	Z34	X35	Y35	Z35	X36	Y36	Z36	X37	Y37	Z37	X38	Y38	Z38	X39	Y39	Z39	X40	Y40	Z40	X41	Y41	Z41	X42	Y42	Z42	X43	Y43	Z43	X44	Y44	Z44	X45	Y45	Z45	X46	Y46	Z46	X47	Y47	Z47	X48	Y48	Z48	X49	Y49	Z49	X50	Y50	Z50	X51	Y51	Z51	X52	Y52	Z52	X53	Y53	Z53	X54	Y54	Z54	X55	Y55	Z55	X56	Y56	Z56	X57	Y57	Z57	X58	Y58	Z58	X59	Y59	Z59	X60	Y60	Z60	X61	Y61	Z61	

178	0.885	-252.2393798828126	1799.634887695313	-1084.912109375	-409.4977111816407	1735.443359375	-1155.46630859375	-427.1746826171876	1735.626586914063	-1016.018798828125	-448.4338684082032	1559.33154296875	-1068.980102539063	-444.4458007812501	1228.390502929688	-1063.540161132813	-298.3175659179688	1519.63525390625	-1079.165161132813	-386.5401916503907	1562.22998046875	-1227.039916992188	-250.354476928711	1434.545776367188	-1367.642944335938	-214.3293609619141	1468.797119140625	-1361.436889648438	-184.4932708740235	1423.1142578125	-1387.544067382813	-128.1977844238282	1423.727172851563	-1392.078491210938	-125.7417526245117	1357.234375	-1347.353393554688	139.7723846435547	1426.174194335938	-1347.399536132813	140.0796966552735	1392.722290039063	-1419.379150390625	227.5642852783204	1436.088623046875	-1376.50439453125	-365.6982421875001	1562.410400390625	-925.305847167969	-211.1727447509766	1442.169555664063	-796.4055175781252	-174.6749725341797	1472.102294921875	-805.590515136719	-143.8060760498047	1423.582397460938	-783.3049926757815	-100.8832397460938	1416.545654296875	-785.5682373046877	-105.2681961059571	1361.08447265625	-836.5562744140627	171.6751403808594	1455.8818359375	-863.486267089844	167.1573181152344	1406.782348632813	-800.507995605469	249.8564453125001	1470.947509765625	-841.0281982421877	-238.4464111328126	1066.028686523438	-1168.883666992188	-247.849594116211	1101.867919921875	-920.5458984375002	-437.523162841797	1138.286010742188	-1051.70947265625	-437.2675170898439	1103.330932617188	-1074.693481445313	-440.761688232422	1108.948852539063	-1018.506958007813	-315.0029907226563	812.3729248046877	-1221.581298828125	-278.7977294921876	735.2822875976564	-1213.656616210938	-232.6144714355469	741.9645385742189	-1211.377319335938	-305.0757446289063	683.5168457031251	-1192.0791015625	-298.7417297363282	530.5112304687501	-1158.633911132813	-259.0146179199219	538.5881347656251	-1026.125610351563	-257.9673767089844	369.9554443359376	-1094.83984375	-311.8229370117188	319.4513854980469	-1145.584838867188	-272.3797302246094	318.6701660156251	-1121.039794921875	-278.0935668945313	245.6220855712891	-1079.004760742188	-339.0514526367188	112.4624938964844	-1100.162109375	-307.1000671386719	135.9138488769532	-1012.329772949219	-408.2030334472657	105.6306533813477	-1039.055053710938	-198.4293212890626	57.68177795410158	-1018.699401855469	-190.1949615478516	54.41180801391603	-1068.225219726563	-242.6770629882813	38.56469726562501	-1118.334838867188	-164.3633575439453	820.8413696289065	-837.4558715820315	-103.7529602050782	796.6885375976565	-849.2243652343752	-78.61995697021486	814.4960937500002	-862.1336059570315	-86.45323944091798	715.6193237304689	-862.2987060546877	-53.05257034301759	628.3438110351564	-868.3370361328127	-32.65670776367188	648.4971923828126	-1003.02978515625	38.13894271850587	552.4351196289064	-883.3900146484377	8.414016723632814	457.2193603515626	-845.8985595703127	51.50001525878908	468.8832092285157	-860.0779418945315	83.67846679687501	429.6872863769532	-886.7441406250002	105.1970825195313	246.6969757080079	-865.900329589844	133.5906372070313	272.6268005371094	-954.1422119140627	59.37335586547853	194.5823516845704	-923.9402465820315	276.1661682128907	241.6896514892579	-934.8357543945315	278.0159301757813	250.7253112792969	-887.5178222656252	237.2167510986329	219.4235534667969	-839.768249511719	
179	0.89	-252.3921508789063	1799.535766601563	-1085.236694335938	-409.7396240234376	1735.414794921875	-1155.848876953125	-427.407440185547	1735.623291015625	-1016.4736328125	-448.6539611816407	1559.304443359375	-1069.2666015625	-444.5908203125001	1228.3310546875	-1063.673095703125	-298.8980712890626	1519.528564453125	-1079.395263671875	-386.7582092285157	1562.22314453125	-1227.294555664063	-250.4525146484376	1434.595825195313	-1367.696533203125	-214.3712615966797	1468.822509765625	-1361.350830078125	-184.5004119873047	1423.252685546875	-1387.430297851563	-128.1630249023438	1423.845703125	-1391.940551757813	-125.7509002685547	1357.283813476563	-1347.241088867188	139.9574584960938	1426.074829101563	-1346.810424804688	140.251937866211	1392.671020507813	-1419.03515625	227.1902465820313	1436.076782226563	-1376.009521484375	-365.8093261718751	1562.39111328125	-925.5567626953127	-211.3235015869141	1442.360229492188	-796.5882568359377	-174.8046264648438	1472.2841796875	-805.8394165039065	-143.8695678710938	1423.72802734375	-783.6572265625002	-100.9416427612305	1416.880126953125	-785.8357543945315	-105.2910919189453	1361.283569335938	-836.7731933593752	171.7904815673828	1456.609130859375	-864.0086059570315	167.2364196777344	1407.483032226563	-800.9752197265627	249.7744445800782	1471.56103515625	-841.5053710937502	-238.6643829345704	1066.046630859375	-1169.127563476563	-247.8926239013672	1101.936279296875	-920.8334960937502	-437.7735595703126	1138.187133789063	-1051.784790039063	-437.3656311035157	1103.2138671875	-1074.851196289063	-440.9173583984376	1108.819458007813	-1018.590881347656	-315.1603088378907	812.3859863281252	-1221.705078125	-278.9924621582032	735.2089233398439	-1213.743286132813	-232.9107055664063	742.0210571289064	-1211.638427734375	-305.1342468261719	683.4470214843751	-1192.158935546875	-299.1977233886719	530.7847900390626	-1158.644287109375	-258.8996887207032	538.5913085937501	-1026.368041992188	-257.9710693359376	369.9236450195313	-1094.983276367188	-311.8136901855469	319.4603576660157	-1145.584594726563	-272.7256774902344	318.6586914062501	-1120.72802734375	-277.9772949218751	245.5678405761719	-1079.172485351563	-339.0987243652344	112.6913375854492	-1100.151123046875	-307.0598144531251	135.9709014892578	-1012.393981933594	-408.1964721679689	105.6430587768555	-1039.02294921875	-198.4309387207032	57.70320892333986	-1018.747680664063	-190.1634063720703	54.37237930297853	-1068.224487304688	-242.8368530273438	38.69346237182618	-1118.33447265625	-163.9653625488282	821.229187011719	-837.6416015625002	-103.0023422241211	797.2163085937502	-849.601501464844	-78.0810012817383	815.1863403320315	-862.3005371093752	-85.5723342895508	716.2747192382814	-862.5950927734377	-52.22342681884767	629.0817260742189	-868.6850585937502	-31.58933258056641	649.2172241210939	-1003.492858886719	39.56233978271485	553.1531982421876	-883.9376220703127	9.959731101989748	457.9363403320314	-846.670837402344	53.25378036499025	469.812225341797	-860.7652587890627	85.22444152832033	430.863250732422	-887.3236083984377	107.1400909423828	247.9038238525391	-866.5529785156252	135.2436981201172	273.8499450683594	-954.8288574218752	61.86703491210939	195.3646697998047	-924.935974121094	278.4167480468751	243.0518035888672	-935.5560302734377	280.5425415039063	252.4628448486329	-888.3460083007815	239.2684631347657	220.7529602050782	-840.2722167968752	
180	0.895	-252.4403686523438	1799.413696289063	-1085.463012695313	-409.9880981445314	1735.36865234375	-1156.186157226563	-427.5799255371095	1735.548950195313	-1016.833435058594	-448.8153381347657	1559.213134765625	-1069.550537109375	-444.8781738281251	1228.252563476563	-1063.83837890625	-299.0700683593751	1519.44140625	-1079.669311523438	-387.0623474121095	1562.227905273438	-1227.494873046875	-250.4554901123047	1434.6796875	-1367.695434570313	-214.4412231445313	1468.864501953125	-1361.260375976563	-184.521713256836	1423.333374023438	-1387.396606445313	-128.1456298828125	1423.871704101563	-1391.7353515625	-125.7387466430664	1357.249267578125	-1347.079467773438	139.9205169677735	1425.908325195313	-1346.19921875	140.3170166015625	1392.616455078125	-1418.65576171875	227.1016387939454	1435.88720703125	-1375.375	-365.9459228515626	1562.359985351563	-925.8477172851565	-211.4027709960938	1442.44873046875	-796.814147949219	-174.9280395507813	1472.396118164063	-806.0938720703127	-143.9307250976563	1423.85986328125	-783.7878417968752	-100.9912643432617	1417.159301757813	-786.1778564453127	-105.3374099731446	1361.57958984375	-837.0537719726565	171.3363647460938	1457.308715820313	-864.321716308594	167.1441040039063	1407.971069335938	-801.3364868164065	249.8302764892579	1472.1181640625	-842.0815429687502	-238.9147491455079	1066.037109375	-1169.284423828125	-248.0061950683594	1102.023559570313	-921.0610351562502	-438.1089782714845	1138.1162109375	-1051.922119140625	-437.510223388672	1103.082763671875	-1075.031372070313	-440.9844970703126	1108.667724609375	-1018.690673828125	-315.4259033203126	812.3089599609377	-1221.808227539063	-279.1558227539063	735.1678466796876	-1213.8369140625	-233.0067596435547	741.9895019531251	-1211.763305664063	-305.2606201171876	683.4132690429689	-1192.212158203125	-298.8123168945313	530.5114135742189	-1158.898071289063	-258.8274230957032	538.6188964843751	-1026.5615234375	-258.0015563964844	369.9455871582032	-1095.08837890625	-311.8553161621094	319.4386291503907	-1145.801147460938	-273.1189880371094	318.7127685546876	-1120.326904296875	-277.8366394042969	245.5659332275391	-1079.261596679688	-338.9168701171876	112.606559753418	-1100.260986328125	-306.9535522460938	135.9884185791016	-1012.427795410156	-408.2266540527345	105.6534042358399	-1039.0634765625	-198.4253082275391	57.72214889526369	-1018.773010253906	-190.1835021972657	54.40818405151369	-1068.276123046875	-242.7379760742188	38.53927612304688	-1118.394653320313	-163.4210510253907	821.6464843750002	-837.9356689453127	-102.3792877197266	797.8856201171877	-849.820007324219	-77.51586914062501	815.8095703125002	-862.626159667969	-84.77290344238283	716.7837524414064	-862.9238891601565	-51.2500457763672	629.8325195312501	-869.0178222656252	-30.7259635925293	649.8905029296876	-1003.662048339844	40.72904205322266	554.1189575195314	-884.2406005859377	11.3651704788208	458.7363586425782	-846.6933593750002	54.31103515625001	470.9729614257814	-860.1621093750002	86.50290679931642	431.6018981933595	-887.7451782226565	109.1124801635742	248.741195678711	-867.190124511719	137.2213745117188	275.0549011230469	-955.4859008789065	63.50601196289064	196.6148834228516	-925.3441162109377	279.9298706054688	244.7319030761719	-936.254577636719	282.1624450683594	254.0433044433594	-889.1296997070315	241.2117156982422	222.2471160888672	-840.922790527344	
181	0.9	-252.5678100585938	1799.296020507813	-1085.72314453125	-409.9616088867189	1735.347778320313	-1156.466430664063	-427.6629333496095	1735.507690429688	-1017.148315429688	-448.9852294921876	1559.177734375	-1069.697265625	-445.1431579589845	1228.237670898438	-1064.008178710938	-299.1993103027344	1519.428833007813	-1079.943237304688	-387.222869873047	1562.173217773438	-1227.6796875	-250.5056304931641	1434.803955078125	-1367.716186523438	-214.4344787597657	1468.868286132813	-1361.129272460938	-184.6271057128907	1423.474609375	-1387.438720703125	-128.0619506835938	1423.925415039063	-1391.620483398438	-125.8016815185547	1357.283447265625	-1347.052124023438	139.803207397461	1425.678588867188	-1345.571411132813	140.4263305664063	1392.59228515625	-1418.146484375	226.9974365234376	1435.618286132813	-1374.767944335938	-366.0762939453126	1562.359008789063	-926.1929931640627	-211.4851684570313	1442.555297851563	-797.0469360351565	-174.8972778320313	1472.681274414063	-806.4246215820315	-143.9564971923828	1424.033569335938	-784.3422851562502	-101.0479507446289	1417.458740234375	-786.4837646484377	-105.3490829467774	1361.809448242188	-837.3242797851565	171.5088806152344	1457.717529296875	-864.6500244140627	166.8902893066407	1408.640747070313	-801.690856933594	249.625228881836	1472.6376953125	-842.6163330078127	-239.0319519042969	1066.092041015625	-1169.557373046875	-248.1218719482422	1102.11474609375	-921.2761230468752	-438.2737731933595	1137.963745117188	-1052.026000976563	-437.7543029785157	1102.984985351563	-1075.193603515625	-441.1131896972657	1108.547973632813	-1018.773254394531	-315.5808105468751	812.3237304687502	-1221.913330078125	-279.2546081542969	735.1372680664064	-1214.005004882813	-233.2185058593751	742.0346679687501	-1211.937866210938	-305.3549499511719	683.3930664062501	-1192.326416015625	-298.9873352050782	530.6407470703126	-1159.004028320313	-258.7516479492188	538.5913696289064	-1026.751708984375	-257.8996887207032	369.9821777343751	-1095.276245117188	-311.9207458496094	319.4515991210938	-1145.941162109375	-273.0875854492188	318.7250671386719	-1120.595458984375	-277.7136230468751	245.6351165771485	-1079.407104492188	-339.0157775878907	112.7918243408203	-1100.224487304688	-306.9250183105469	136.0473785400391	-1012.527038574219	-408.1783142089845	105.6423416137696	-1039.061889648438	-198.4277038574219	57.7511329650879	-1018.792724609375	-190.1851196289063	54.40332031250001	-1068.322143554688	-242.8605957031251	38.66751098632813	-1118.360229492188	-162.6312561035157	822.005065917969	-838.402282714844	-101.8017272949219	798.4971923828127	-850.2165527343752	-77.05132293701173	816.5193481445315	-862.7175903320315	-84.2074432373047	717.2801513671876	-863.1578369140627	-50.33713150024415	630.2031860351564	-869.3853149414065	-29.76014518737794	650.4757080078126	-1004.092956542969	41.87669754028321	554.8973388671876	-884.728698730469	12.80463027954102	459.3387756347657	-847.2129516601565	55.86081695556642	471.8392333984376	-860.6965332031252	88.23702239990236	432.7319641113282	-888.382263183594	110.9798812866211	249.8354492187501	-867.9020996093752	139.0169982910157	275.9652404785157	-956.1318969726565	65.6568069458008	197.4958801269532	-926.106872558594	282.0050354003907	246.1069488525391	-936.9250488281252	284.3976745605469	255.7010192871094	-889.8990478515627	243.1698608398438	223.4581298828126	-841.6724243164065	
